<svg width="57" height="101" viewBox="0 0 57 101" fill="none" xmlns="http://www.w3.org/2000/svg">
<circle cx="34" cy="6" r="6" fill="#FFC77D"/>
<circle cx="34" cy="59" r="6" fill="#FFC77D"/>
<circle cx="34" cy="24" r="6" fill="#FFC77D"/>
<circle cx="34" cy="77" r="6" fill="#FFC77D"/>
<circle cx="34" cy="42" r="6" fill="#FFC77D"/>
<circle cx="34" cy="95" r="6" fill="#FFC77D"/>
<circle cx="17" cy="6" r="6" fill="#FFC77D"/>
<circle cx="17" cy="59" r="6" fill="#FFC77D"/>
<circle cx="17" cy="24" r="6" fill="#FFC77D"/>
<circle cx="17" cy="77" r="6" fill="#FFC77D"/>
<circle cx="17" cy="42" r="6" fill="#FFC77D"/>
<circle cx="17" cy="95" r="6" fill="#FFC77D"/>
<circle cy="6" r="6" fill="#FFC77D"/>
<circle cy="59" r="6" fill="#FFC77D"/>
<circle cx="51" cy="6" r="6" fill="#FFC77D"/>
<circle cx="51" cy="59" r="6" fill="#FFC77D"/>
<circle cy="24" r="6" fill="#FFC77D"/>
<circle cy="77" r="6" fill="#FFC77D"/>
<circle cx="51" cy="24" r="6" fill="#FFC77D"/>
<circle cx="51" cy="77" r="6" fill="#FFC77D"/>
<circle cy="42" r="6" fill="#FFC77D"/>
<circle cy="95" r="6" fill="#FFC77D"/>
<circle cx="51" cy="42" r="6" fill="#FFC77D"/>
<circle cx="51" cy="95" r="6" fill="#FFC77D"/>
</svg>
