<svg width="126" height="33" viewBox="0 0 126 33" fill="none" xmlns="http://www.w3.org/2000/svg">
<path d="M10.125 29.3516C8.28125 29.3516 6.69531 28.9609 5.36719 28.1797C4.04688 27.3906 3.03125 26.2969 2.32031 24.8984C1.61719 23.5 1.26563 21.8906 1.26563 20.0703C1.26563 18.2266 1.62109 16.6094 2.33203 15.2187C3.05078 13.8203 4.07031 12.7305 5.39063 11.9492C6.71094 11.1602 8.28125 10.7656 10.1016 10.7656C11.6719 10.7656 13.0469 11.0508 14.2266 11.6211C15.4063 12.1914 16.3398 12.9922 17.0273 14.0234C17.7148 15.0547 18.0938 16.2656 18.1641 17.6562H13.4531C13.3203 16.7578 12.9688 16.0352 12.3984 15.4883C11.8359 14.9336 11.0977 14.6562 10.1836 14.6562C9.41016 14.6562 8.73438 14.8672 8.15625 15.2891C7.58594 15.7031 7.14063 16.3086 6.82031 17.1055C6.5 17.9023 6.33984 18.8672 6.33984 20C6.33984 21.1484 6.49609 22.125 6.80859 22.9297C7.12891 23.7344 7.57813 24.3477 8.15625 24.7695C8.73438 25.1914 9.41016 25.4023 10.1836 25.4023C10.7539 25.4023 11.2656 25.2852 11.7188 25.0508C12.1797 24.8164 12.5586 24.4766 12.8555 24.0312C13.1602 23.5781 13.3594 23.0352 13.4531 22.4023H18.1641C18.0859 23.7773 17.7109 24.9883 17.0391 26.0352C16.375 27.0742 15.457 27.8867 14.2852 28.4727C13.1133 29.0586 11.7266 29.3516 10.125 29.3516ZM26.4932 29.3398C25.3447 29.3398 24.3213 29.1406 23.4229 28.7422C22.5244 28.3359 21.8135 27.7383 21.29 26.9492C20.7744 26.1523 20.5166 25.1602 20.5166 23.9727C20.5166 22.9727 20.7002 22.1328 21.0674 21.4531C21.4346 20.7734 21.9346 20.2266 22.5674 19.8125C23.2002 19.3984 23.9189 19.0859 24.7236 18.875C25.5361 18.6641 26.3877 18.5156 27.2783 18.4297C28.3252 18.3203 29.1689 18.2187 29.8096 18.125C30.4502 18.0234 30.915 17.875 31.2041 17.6797C31.4932 17.4844 31.6377 17.1953 31.6377 16.8125V16.7422C31.6377 16 31.4033 15.4258 30.9346 15.0195C30.4736 14.6133 29.8174 14.4102 28.9658 14.4102C28.0674 14.4102 27.3525 14.6094 26.8213 15.0078C26.29 15.3984 25.9385 15.8906 25.7666 16.4844L21.1494 16.1094C21.3838 15.0156 21.8447 14.0703 22.5322 13.2734C23.2197 12.4687 24.1064 11.8516 25.1924 11.4219C26.2861 10.9844 27.5518 10.7656 28.9893 10.7656C29.9893 10.7656 30.9463 10.8828 31.8604 11.1172C32.7822 11.3516 33.5986 11.7148 34.3096 12.207C35.0283 12.6992 35.5947 13.332 36.0088 14.1055C36.4229 14.8711 36.6299 15.7891 36.6299 16.8594V29H31.8955V26.5039H31.7549C31.4658 27.0664 31.0791 27.5625 30.5947 27.9922C30.1104 28.4141 29.5283 28.7461 28.8486 28.9883C28.1689 29.2227 27.3838 29.3398 26.4932 29.3398ZM27.9229 25.8945C28.6572 25.8945 29.3057 25.75 29.8682 25.4609C30.4307 25.1641 30.8721 24.7656 31.1924 24.2656C31.5127 23.7656 31.6729 23.1992 31.6729 22.5664V20.6563C31.5166 20.7578 31.3018 20.8516 31.0283 20.9375C30.7627 21.0156 30.4619 21.0898 30.126 21.1602C29.79 21.2227 29.4541 21.2812 29.1182 21.3359C28.7822 21.3828 28.4775 21.4258 28.2041 21.4648C27.6182 21.5508 27.1064 21.6875 26.6689 21.875C26.2314 22.0625 25.8916 22.3164 25.6494 22.6367C25.4072 22.9492 25.2861 23.3398 25.2861 23.8086C25.2861 24.4883 25.5322 25.0078 26.0244 25.3672C26.5244 25.7187 27.1572 25.8945 27.9229 25.8945ZM40.5029 29V11H45.2607V14.1758H45.4717C45.8467 13.1211 46.4717 12.2891 47.3467 11.6797C48.2217 11.0703 49.2686 10.7656 50.4873 10.7656C51.7217 10.7656 52.7725 11.0742 53.6396 11.6914C54.5068 12.3008 55.085 13.1289 55.374 14.1758H55.5615C55.9287 13.1445 56.5928 12.3203 57.5537 11.7031C58.5225 11.0781 59.667 10.7656 60.9873 10.7656C62.667 10.7656 64.0303 11.3008 65.0771 12.3711C66.1318 13.4336 66.6592 14.9414 66.6592 16.8945V29H61.6787V17.8789C61.6787 16.8789 61.4131 16.1289 60.8818 15.6289C60.3506 15.1289 59.6865 14.8789 58.8896 14.8789C57.9834 14.8789 57.2764 15.168 56.7686 15.7461C56.2607 16.3164 56.0068 17.0703 56.0068 18.0078V29H51.167V17.7734C51.167 16.8906 50.9131 16.1875 50.4053 15.6641C49.9053 15.1406 49.2451 14.8789 48.4248 14.8789C47.8701 14.8789 47.3701 15.0195 46.9248 15.3008C46.4873 15.5742 46.1396 15.9609 45.8818 16.4609C45.624 16.9531 45.4951 17.5312 45.4951 18.1953V29H40.5029ZM70.6025 29V11H75.5947V29H70.6025ZM73.1104 8.67969C72.3682 8.67969 71.7314 8.43359 71.2002 7.9414C70.6768 7.44141 70.415 6.84375 70.415 6.14844C70.415 5.46094 70.6768 4.87109 71.2002 4.37891C71.7314 3.87891 72.3682 3.6289 73.1104 3.6289C73.8525 3.6289 74.4854 3.87891 75.0088 4.37891C75.54 4.87109 75.8057 5.46094 75.8057 6.14844C75.8057 6.84375 75.54 7.44141 75.0088 7.9414C74.4854 8.43359 73.8525 8.67969 73.1104 8.67969ZM84.5859 5V29H79.5938V5H84.5859ZM93.5771 5V29H88.585V5H93.5771ZM105.779 29.3516C103.928 29.3516 102.334 28.9766 100.998 28.2266C99.6699 27.4687 98.6465 26.3984 97.9277 25.0156C97.209 23.625 96.8496 21.9805 96.8496 20.082C96.8496 18.2305 97.209 16.6055 97.9277 15.207C98.6465 13.8086 99.6582 12.7187 100.963 11.9375C102.275 11.1562 103.814 10.7656 105.58 10.7656C106.768 10.7656 107.873 10.957 108.896 11.3398C109.928 11.7148 110.826 12.2812 111.592 13.0391C112.365 13.7969 112.967 14.75 113.396 15.8984C113.826 17.0391 114.041 18.375 114.041 19.9062V21.2773H98.8418V18.1836H109.342C109.342 17.4648 109.186 16.8281 108.873 16.2734C108.561 15.7187 108.127 15.2852 107.572 14.9727C107.025 14.6523 106.389 14.4922 105.662 14.4922C104.904 14.4922 104.232 14.668 103.646 15.0195C103.068 15.3633 102.615 15.8281 102.287 16.4141C101.959 16.9922 101.791 17.6367 101.783 18.3477V21.2891C101.783 22.1797 101.947 22.9492 102.275 23.5977C102.611 24.2461 103.084 24.7461 103.693 25.0977C104.303 25.4492 105.025 25.625 105.861 25.625C106.416 25.625 106.924 25.5469 107.385 25.3906C107.846 25.2344 108.24 25 108.568 24.6875C108.896 24.375 109.146 23.9922 109.318 23.5391L113.936 23.8438C113.701 24.9531 113.221 25.9219 112.494 26.75C111.775 27.5703 110.846 28.2109 109.705 28.6719C108.572 29.125 107.264 29.3516 105.779 29.3516Z" fill="#FF6F00"/>
<path d="M120.217 29.3047C119.443 29.3047 118.779 29.0313 118.225 28.4844C117.678 27.9297 117.404 27.2656 117.404 26.4922C117.404 25.7266 117.678 25.0703 118.225 24.5234C118.779 23.9766 119.443 23.7031 120.217 23.7031C120.967 23.7031 121.623 23.9766 122.186 24.5234C122.748 25.0703 123.029 25.7266 123.029 26.4922C123.029 27.0078 122.896 27.4805 122.631 27.9102C122.373 28.332 122.033 28.6719 121.611 28.9297C121.189 29.1797 120.725 29.3047 120.217 29.3047Z" fill="#FFC77D"/>
</svg>
